<svg width="692" height="464" viewBox="0 0 692 464" fill="none" xmlns="http://www.w3.org/2000/svg">
<path d="M888 9H277C270.373 9 265 14.3726 265 21V431C265 437.627 270.373 443 277 443H888C894.627 443 900 437.627 900 431V21C900 14.3726 894.627 9 888 9Z" fill="#191D36"/>
<path d="M887 12H278C272.477 12 268 16.4772 268 22V430C268 435.523 272.477 440 278 440H887C892.523 440 897 435.523 897 430V22C897 16.4772 892.523 12 887 12Z" fill="#0B0E21"/>
<path d="M879 25H286C283.239 25 281 27.2386 281 30V422C281 424.761 283.239 427 286 427H879C881.761 427 884 424.761 884 422V30C884 27.2386 881.761 25 879 25Z" fill="#16171B"/>
<path d="M878.554 27H287C285.343 27 284 28.3431 284 30V420.861C284 422.518 285.343 423.861 287 423.861H878.554C880.211 423.861 881.554 422.518 881.554 420.861V30C881.554 28.3431 880.211 27 878.554 27Z" fill="#EBEDF4"/>
<mask id="mask0_1679_155" style="mask-type:luminance" maskUnits="userSpaceOnUse" x="284" y="27" width="598" height="397">
<path d="M878.554 27H287C285.343 27 284 28.3431 284 30V420.861C284 422.518 285.343 423.861 287 423.861H878.554C880.211 423.861 881.554 422.518 881.554 420.861V30C881.554 28.3431 880.211 27 878.554 27Z" fill="white"/>
</mask>
<g mask="url(#mask0_1679_155)">
<path d="M739 116H418C415.239 116 413 118.239 413 121V158C413 160.761 415.239 163 418 163H739C741.761 163 744 160.761 744 158V121C744 118.239 741.761 116 739 116Z" fill="white"/>
<path d="M479.5 134H431.5C430.119 134 429 135.119 429 136.5C429 137.881 430.119 139 431.5 139H479.5C480.881 139 482 137.881 482 136.5C482 135.119 480.881 134 479.5 134Z" fill="#B1B4C7"/>
<path d="M460.5 143H431.5C430.119 143 429 144.119 429 145.5C429 146.881 430.119 148 431.5 148H460.5C461.881 148 463 146.881 463 145.5C463 144.119 461.881 143 460.5 143Z" fill="#D4D7E6"/>
<path d="M554.5 134H506.5C505.119 134 504 135.119 504 136.5C504 137.881 505.119 139 506.5 139H554.5C555.881 139 557 137.881 557 136.5C557 135.119 555.881 134 554.5 134Z" fill="#B1B4C7"/>
<path d="M535.5 143H506.5C505.119 143 504 144.119 504 145.5C504 146.881 505.119 148 506.5 148H535.5C536.881 148 538 146.881 538 145.5C538 144.119 536.881 143 535.5 143Z" fill="#D4D7E6"/>
<path d="M656.5 134H608.5C607.119 134 606 135.119 606 136.5C606 137.881 607.119 139 608.5 139H656.5C657.881 139 659 137.881 659 136.5C659 135.119 657.881 134 656.5 134Z" fill="#B1B4C7"/>
<path d="M637.5 143H608.5C607.119 143 606 144.119 606 145.5C606 146.881 607.119 148 608.5 148H637.5C638.881 148 640 146.881 640 145.5C640 144.119 638.881 143 637.5 143Z" fill="#D4D7E6"/>
<path d="M729.5 134H681.5C680.119 134 679 135.119 679 136.5C679 137.881 680.119 139 681.5 139H729.5C730.881 139 732 137.881 732 136.5C732 135.119 730.881 134 729.5 134Z" fill="#B1B4C7"/>
<path d="M710.5 143H681.5C680.119 143 679 144.119 679 145.5C679 146.881 680.119 148 681.5 148H710.5C711.881 148 713 146.881 713 145.5C713 144.119 711.881 143 710.5 143Z" fill="#D4D7E6"/>
<path d="M739 177H418C415.239 177 413 179.239 413 182V356C413 358.761 415.239 361 418 361H739C741.761 361 744 358.761 744 356V182C744 179.239 741.761 177 739 177Z" fill="white"/>
<mask id="mask1_1679_155" style="mask-type:luminance" maskUnits="userSpaceOnUse" x="413" y="177" width="331" height="184">
<path d="M739 177H418C415.239 177 413 179.239 413 182V356C413 358.761 415.239 361 418 361H739C741.761 361 744 358.761 744 356V182C744 179.239 741.761 177 739 177Z" fill="white"/>
</mask>
<g mask="url(#mask1_1679_155)">
<path d="M569 209H409C402.373 209 397 214.373 397 221C397 227.627 402.373 233 409 233H569C575.627 233 581 227.627 581 221C581 214.373 575.627 209 569 209Z" fill="#FF5E5E"/>
<path d="M569 305H409C402.373 305 397 310.373 397 317C397 323.627 402.373 329 409 329H569C575.627 329 581 323.627 581 317C581 310.373 575.627 305 569 305Z" fill="#FF5E5E"/>
<path d="M613 221C613 214.373 607.627 209 601 209C594.373 209 589 214.373 589 221C589 227.627 594.373 233 601 233C607.627 233 613 227.627 613 221Z" fill="#BC4747"/>
<path d="M665 241H601C594.373 241 589 246.373 589 253C589 259.627 594.373 265 601 265H665C671.627 265 677 259.627 677 253C677 246.373 671.627 241 665 241Z" fill="#FF5E5E"/>
<path d="M569 240.547H479C472.373 240.547 467 245.919 467 252.547C467 259.174 472.373 264.547 479 264.547H569C575.627 264.547 581 259.174 581 252.547C581 245.919 575.627 240.547 569 240.547Z" fill="#BC4747"/>
<path d="M665 273.531H639C632.373 273.531 627 278.904 627 285.531C627 292.159 632.373 297.531 639 297.531H665C671.627 297.531 677 292.159 677 285.531C677 278.904 671.627 273.531 665 273.531Z" fill="#FF5E5E"/>
<path d="M447 272.926H392C385.373 272.926 380 278.298 380 284.926C380 291.553 385.373 296.926 392 296.926H447C453.627 296.926 459 291.553 459 284.926C459 278.298 453.627 272.926 447 272.926Z" fill="#FF5E5E"/>
<path d="M709 253C709 246.373 703.627 241 697 241C690.373 241 685 246.373 685 253C685 259.627 690.373 265 697 265C703.627 265 709 259.627 709 253Z" fill="#BC4747"/>
</g>
<path d="M487.5 41H415.5C414.119 41 413 42.1193 413 43.5C413 44.8807 414.119 46 415.5 46H487.5C488.881 46 490 44.8807 490 43.5C490 42.1193 488.881 41 487.5 41Z" fill="#CBCEDC"/>
<path d="M469.5 67H422.5C417.253 67 413 71.2533 413 76.5C413 81.7467 417.253 86 422.5 86H469.5C474.747 86 479 81.7467 479 76.5C479 71.2533 474.747 67 469.5 67Z" fill="#8C90A3"/>
<path d="M510.5 67.2891H498.5C493.253 67.2891 489 71.5424 489 76.7891C489 82.0358 493.253 86.2891 498.5 86.2891H510.5C515.747 86.2891 520 82.0358 520 76.7891C520 71.5424 515.747 67.2891 510.5 67.2891Z" fill="#8C90A3"/>
<path d="M549.5 67H537.5C532.253 67 528 71.2533 528 76.5C528 81.7467 532.253 86 537.5 86H549.5C554.747 86 559 81.7467 559 76.5C559 71.2533 554.747 67 549.5 67Z" fill="#8C90A3"/>
</g>
<mask id="mask2_1679_155" style="mask-type:luminance" maskUnits="userSpaceOnUse" x="284" y="27" width="598" height="397">
<path d="M878.554 27H287C285.343 27 284 28.3431 284 30V420.861C284 422.518 285.343 423.861 287 423.861H878.554C880.211 423.861 881.554 422.518 881.554 420.861V30C881.554 28.3431 880.211 27 878.554 27Z" fill="white"/>
</mask>
<g mask="url(#mask2_1679_155)">
<path fill-rule="evenodd" clip-rule="evenodd" d="M284 27H391V424H284V27Z" fill="#353740"/>
<path d="M373.5 107H301.5C300.119 107 299 108.119 299 109.5C299 110.881 300.119 112 301.5 112H373.5C374.881 112 376 110.881 376 109.5C376 108.119 374.881 107 373.5 107Z" fill="#4A4E5D"/>
<path d="M373.5 126H301.5C300.119 126 299 127.119 299 128.5C299 129.881 300.119 131 301.5 131H373.5C374.881 131 376 129.881 376 128.5C376 127.119 374.881 126 373.5 126Z" fill="#4A4E5D"/>
<path d="M373.5 145H301.5C300.119 145 299 146.119 299 147.5C299 148.881 300.119 150 301.5 150H373.5C374.881 150 376 148.881 376 147.5C376 146.119 374.881 145 373.5 145Z" fill="#4A4E5D"/>
<path d="M373.5 164H301.5C300.119 164 299 165.119 299 166.5C299 167.881 300.119 169 301.5 169H373.5C374.881 169 376 167.881 376 166.5C376 165.119 374.881 164 373.5 164Z" fill="#4A4E5D"/>
<path d="M373.5 183H301.5C300.119 183 299 184.119 299 185.5C299 186.881 300.119 188 301.5 188H373.5C374.881 188 376 186.881 376 185.5C376 184.119 374.881 183 373.5 183Z" fill="#4A4E5D"/>
<path d="M373.5 405H301.5C300.119 405 299 406.119 299 407.5C299 408.881 300.119 410 301.5 410H373.5C374.881 410 376 408.881 376 407.5C376 406.119 374.881 405 373.5 405Z" fill="#4A4E5D"/>
<path d="M373.5 66H325.5C324.119 66 323 67.1193 323 68.5C323 69.8807 324.119 71 325.5 71H373.5C374.881 71 376 69.8807 376 68.5C376 67.1193 374.881 66 373.5 66Z" fill="#7B7F90"/>
<path d="M354.5 75H325.5C324.119 75 323 76.1193 323 77.5C323 78.8807 324.119 80 325.5 80H354.5C355.881 80 357 78.8807 357 77.5C357 76.1193 355.881 75 354.5 75Z" fill="#4A4E5D"/>
<path d="M308 82C312.971 82 317 77.9706 317 73C317 68.0294 312.971 64 308 64C303.029 64 299 68.0294 299 73C299 77.9706 303.029 82 308 82Z" fill="#FF5E5E"/>
<path d="M371.5 39H303.5C301.015 39 299 41.0147 299 43.5C299 45.9853 301.015 48 303.5 48H371.5C373.985 48 376 45.9853 376 43.5C376 41.0147 373.985 39 371.5 39Z" fill="#8C90A3"/>
</g>
<g opacity="0.098">
<path d="M584.64 17H573C571.895 17 571 17.8954 571 19C571 20.1046 571.895 21 573 21H584.64C585.745 21 586.64 20.1046 586.64 19C586.64 17.8954 585.745 17 584.64 17Z" fill="#4A5166"/>
<path d="M594 18.84C594 17.8238 593.177 17 592.16 17C591.144 17 590.32 17.8238 590.32 18.84V19.16C590.32 20.1762 591.144 21 592.16 21C593.177 21 594 20.1762 594 19.16V18.84Z" fill="#4A5166"/>
</g>
<path d="M187 439H956.629C957.425 439 958.188 439.316 958.75 439.879C959.313 440.441 959.629 441.204 959.629 442V458.006H184V442C184 441.204 184.316 440.441 184.879 439.879C185.441 439.316 186.204 439 187 439V439Z" fill="#242942"/>
<mask id="mask3_1679_155" style="mask-type:luminance" maskUnits="userSpaceOnUse" x="184" y="439" width="776" height="20">
<path d="M187 439H956.629C957.425 439 958.188 439.316 958.75 439.879C959.313 440.441 959.629 441.204 959.629 442V458.006H184V442C184 441.204 184.316 440.441 184.879 439.879C185.441 439.316 186.204 439 187 439V439Z" fill="white"/>
</mask>
<g mask="url(#mask3_1679_155)">
<path d="M625.158 392.438H518.469C512.946 392.438 508.469 396.915 508.469 402.438V440.405C508.469 445.928 512.946 450.405 518.469 450.405H625.158C630.681 450.405 635.158 445.928 635.158 440.405V402.438C635.158 396.915 630.681 392.438 625.158 392.438Z" fill="#2E334F"/>
</g>
<path d="M184 457H960C960 458.857 959.263 460.637 957.95 461.95C956.637 463.262 954.857 464 953 464H191C189.143 464 187.363 463.262 186.05 461.95C184.737 460.637 184 458.857 184 457Z" fill="#1A1C27"/>
<g filter="url(#filter0_d_1679_155)">
<path d="M199 10H56C49.3726 10 44 15.3726 44 22V339C44 345.627 49.3726 351 56 351H199C205.627 351 211 345.627 211 339V22C211 15.3726 205.627 10 199 10Z" fill="black"/>
</g>
<path d="M199 10H56C49.3726 10 44 15.3726 44 22V339C44 345.627 49.3726 351 56 351H199C205.627 351 211 345.627 211 339V22C211 15.3726 205.627 10 199 10Z" fill="#242942"/>
<path d="M196 15.7891H59C54.0294 15.7891 50 19.8185 50 24.7891V336.789C50 341.76 54.0294 345.789 59 345.789H196C200.971 345.789 205 341.76 205 336.789V24.7891C205 19.8185 200.971 15.7891 196 15.7891Z" fill="#EBEDF4"/>
<mask id="mask4_1679_155" style="mask-type:luminance" maskUnits="userSpaceOnUse" x="50" y="15" width="155" height="331">
<path d="M196 15.7891H59C54.0294 15.7891 50 19.8185 50 24.7891V336.789C50 341.76 54.0294 345.789 59 345.789H196C200.971 345.789 205 341.76 205 336.789V24.7891C205 19.8185 200.971 15.7891 196 15.7891Z" fill="white"/>
</mask>
<g mask="url(#mask4_1679_155)">
<path fill-rule="evenodd" clip-rule="evenodd" d="M50 15.7891H205V92.7891H50V15.7891Z" fill="#353740"/>
<path d="M193 123.789H63C60.2386 123.789 58 126.028 58 128.789V302.789C58 305.55 60.2386 307.789 63 307.789H193C195.761 307.789 198 305.55 198 302.789V128.789C198 126.028 195.761 123.789 193 123.789Z" fill="white"/>
<mask id="mask5_1679_155" style="mask-type:luminance" maskUnits="userSpaceOnUse" x="58" y="123" width="140" height="185">
<path d="M193 123.789H63C60.2386 123.789 58 126.028 58 128.789V302.789C58 305.55 60.2386 307.789 63 307.789H193C195.761 307.789 198 305.55 198 302.789V128.789C198 126.028 195.761 123.789 193 123.789Z" fill="white"/>
</mask>
<g mask="url(#mask5_1679_155)">
<path d="M162 155.789H322C328.627 155.789 334 161.162 334 167.789C334 174.416 328.627 179.789 322 179.789H162C155.373 179.789 150 174.416 150 167.789C150 161.162 155.373 155.789 162 155.789Z" fill="#FF5E5E"/>
<path d="M162 251.789H322C328.627 251.789 334 257.162 334 263.789C334 270.416 328.627 275.789 322 275.789H162C155.373 275.789 150 270.416 150 263.789C150 257.162 155.373 251.789 162 251.789Z" fill="#FF5E5E"/>
<path d="M118 167.789C118 161.162 123.373 155.789 130 155.789C136.627 155.789 142 161.162 142 167.789C142 174.416 136.627 179.789 130 179.789C123.373 179.789 118 174.416 118 167.789Z" fill="#BC4747"/>
<path d="M66 187.789H130C136.627 187.789 142 193.162 142 199.789C142 206.416 136.627 211.789 130 211.789H66C59.3726 211.789 54 206.416 54 199.789C54 193.162 59.3726 187.789 66 187.789Z" fill="#FF5E5E"/>
<path d="M162 187.336H252C258.627 187.336 264 192.709 264 199.336C264 205.963 258.627 211.336 252 211.336H162C155.373 211.336 150 205.963 150 199.336C150 192.709 155.373 187.336 162 187.336Z" fill="#BC4747"/>
<path d="M66 220.32H92C98.6274 220.32 104 225.693 104 232.32C104 238.948 98.6274 244.32 92 244.32H66C59.3726 244.32 54 238.948 54 232.32C54 225.693 59.3726 220.32 66 220.32Z" fill="#FF5E5E"/>
</g>
<path d="M193 67.7891H63C60.2386 67.7891 58 70.0276 58 72.7891V109.789C58 112.55 60.2386 114.789 63 114.789H193C195.761 114.789 198 112.55 198 109.789V72.7891C198 70.0276 195.761 67.7891 193 67.7891Z" fill="white"/>
<path d="M161.5 36.7891H89.5C88.1193 36.7891 87 37.9084 87 39.2891C87 40.6698 88.1193 41.7891 89.5 41.7891H161.5C162.881 41.7891 164 40.6698 164 39.2891C164 37.9084 162.881 36.7891 161.5 36.7891Z" fill="#4A4E5D"/>
</g>
<path d="M173.5 85.7891H76.5C75.1193 85.7891 74 86.9084 74 88.2891C74 89.6698 75.1193 90.7891 76.5 90.7891H173.5C174.881 90.7891 176 89.6698 176 88.2891C176 86.9084 174.881 85.7891 173.5 85.7891Z" fill="#B1B4C7"/>
<path d="M136.5 94.7891H76.5C75.1193 94.7891 74 95.9084 74 97.2891C74 98.6698 75.1193 99.7891 76.5 99.7891H136.5C137.881 99.7891 139 98.6698 139 97.2891C139 95.9084 137.881 94.7891 136.5 94.7891Z" fill="#D4D7E6"/>
<defs>
<filter id="filter0_d_1679_155" x="0" y="0" width="267" height="441" filterUnits="userSpaceOnUse" color-interpolation-filters="sRGB">
<feFlood flood-opacity="0" result="BackgroundImageFix"/>
<feColorMatrix in="SourceAlpha" type="matrix" values="0 0 0 0 0 0 0 0 0 0 0 0 0 0 0 0 0 0 127 0" result="hardAlpha"/>
<feOffset dx="6" dy="40"/>
<feGaussianBlur stdDeviation="25"/>
<feColorMatrix type="matrix" values="0 0 0 0 0.24346 0 0 0 0 0.279313 0 0 0 0 0.375399 0 0 0 0.255293 0"/>
<feBlend mode="normal" in2="BackgroundImageFix" result="effect1_dropShadow_1679_155"/>
<feBlend mode="normal" in="SourceGraphic" in2="effect1_dropShadow_1679_155" result="shape"/>
</filter>
</defs>
</svg>
